# xmcd
#
# Track frame offsets: 
#        150
#        16276
#        25785
#        44046
#        59558
#        78075
#        93490
#        106780
#        127404
#        143162
#        164255
#        189137
#        206682
#        222148
#
# Disc length: 3189 seconds
#
# Revision: 0
# Processed by: cddbd v1.5.2PL0 Copyright (c) Steve Scherf et al.
# Submitted via: ExactAudioCopy v0.99pb5
#
DISCID=c00c730e
DTITLE=Various Artist - Славянская душа (Сбоник №3)
DYEAR=2005
DGENRE=Pop
TTITLE0=Михаил Шуфутинский - Славянская душа
TTITLE1=Золотое кольцо - Течет ручей
TTITLE2=Белый орел - Как упоительны в России вечера
TTITLE3=Татьяна Буланова - Ясный мой свет
TTITLE4=Владимир Кузьмин - Симона
TTITLE5=Любовь Успенская - Пропадаю я
TTITLE6=Дюна - Борька бабник
TTITLE7=Алена Апина - Электричка
TTITLE8=Валерий Сюткин - 7000 над землей
TTITLE9=Анжелика Варум - Зимняя вишня
TTITLE10=Владимир Пресняков - Замок из дождя
TTITLE11=Алла Горбачева - Бесамэ Мучо
TTITLE12=Маша Распутина - Играй, музыкант
TTITLE13=Аркадий Укупник - Петруха (remix)
EXTD=
EXTT0=
EXTT1=
EXTT2=
EXTT3=
EXTT4=
EXTT5=
EXTT6=
EXTT7=
EXTT8=
EXTT9=
EXTT10=
EXTT11=
EXTT12=
EXTT13=
PLAYORDER=
